<svg xmlns="http://www.w3.org/2000/svg" width="240" height="160" viewBox="0 0 240 160" fill="none"><rect x="8" y="8" width="224" height="144" rx="20" fill="#141c48" stroke="#4e60ff" stroke-opacity="0.35" stroke-width="1.5"/><rect x="28" y="28" width="100" height="104" rx="12" stroke="#4e60ff" stroke-width="2.2" fill="none"/><path d="M28 52 H128" stroke="#bcbbc9" stroke-width="2"/><path d="M48 20 V36 M108 20 V36" stroke="#ffffff" stroke-width="2.2" stroke-linecap="round"/><rect x="44" y="64" width="18" height="14" rx="3" fill="#4e60ff"/><rect x="70" y="64" width="18" height="14" rx="3" fill="rgba(78,96,255,0.35)"/><rect x="96" y="64" width="18" height="14" rx="3" fill="rgba(188,187,201,0.35)"/><rect x="44" y="88" width="18" height="14" rx="3" fill="rgba(188,187,201,0.35)"/><rect x="70" y="88" width="18" height="14" rx="3" fill="#4e60ff"/><path d="M152 40 H204" stroke="#bcbbc9" stroke-width="2" stroke-linecap="round"/><path d="M152 64 H190" stroke="#4e60ff" stroke-width="3" stroke-linecap="round"/><path d="M152 88 H212" stroke="#bcbbc9" stroke-width="2" stroke-linecap="round"/><path d="M152 112 H178" stroke="#ffffff" stroke-width="2.4" stroke-linecap="round"/><circle cx="190" cy="64" r="5" fill="#ffffff"/></svg>